<svg width="32" height="32" viewBox="0 0 32 32" fill="none" xmlns="http://www.w3.org/2000/svg">
<rect width="32" height="32" fill="white"/>
<g clip-path="url(#clip0)">
<path d="M25.5999 22.2156C23.7031 22.2156 22.7241 22.9041 21.8606 23.5112C21.1021 24.0444 20.5029 24.4656 19.1995 24.4656C17.8962 24.4656 17.2971 24.0444 16.5388 23.5112C15.6753 22.9038 14.6963 22.2156 12.7996 22.2156C10.9031 22.2156 9.92407 22.9041 9.06055 23.5112C8.30225 24.0444 7.70312 24.4656 6.3999 24.4656C5.09668 24.4656 4.49756 24.0444 3.73926 23.5112C2.87549 22.9041 1.89648 22.2156 0 22.2156V24.0906C1.30347 24.0906 1.90234 24.5117 2.66064 25.0452C3.52441 25.6523 4.50317 26.3406 6.3999 26.3406C8.29639 26.3406 9.27539 25.6523 10.1389 25.0452C10.8972 24.5117 11.4963 24.0906 12.7996 24.0906C14.103 24.0906 14.7019 24.5117 15.4604 25.0452C16.324 25.6523 17.303 26.3406 19.1995 26.3406C21.0962 26.3406 22.0752 25.6523 22.939 25.0452C23.6973 24.512 24.2964 24.0906 25.5999 24.0906C26.9033 24.0906 27.5022 24.5117 28.2607 25.0452C29.1243 25.6523 30.1033 26.3406 32 26.3406V24.4656C30.6965 24.4656 30.0974 24.0444 29.3391 23.5112C28.4753 22.9041 27.4963 22.2156 25.5999 22.2156Z" fill="#F15525"/>
<path d="M25.5999 11.1553C23.7031 11.1553 22.7241 11.8435 21.8606 12.4507C21.1021 12.9839 20.5029 13.4053 19.1995 13.4053C17.8962 13.4053 17.2971 12.9839 16.5388 12.4507C15.6753 11.8435 14.6963 11.1553 12.7996 11.1553C10.9031 11.1553 9.92407 11.8435 9.06055 12.4507C8.30225 12.9839 7.70312 13.4053 6.3999 13.4053C5.09668 13.4053 4.49756 12.9839 3.73926 12.4507C2.87549 11.8435 1.89648 11.1553 0 11.1553V13.0303C1.30347 13.0303 1.90234 13.4514 2.66064 13.9846C3.52441 14.592 4.50317 15.2803 6.3999 15.2803C8.29639 15.2803 9.27539 14.5918 10.1389 13.9846C10.8972 13.4514 11.4963 13.0303 12.7996 13.0303C14.103 13.0303 14.7019 13.4514 15.4604 13.9846C16.324 14.592 17.303 15.2803 19.1995 15.2803C21.0962 15.2803 22.0752 14.5918 22.939 13.9846C23.6973 13.4514 24.2964 13.0303 25.5999 13.0303C26.9033 13.0303 27.5022 13.4514 28.2607 13.9846C29.1243 14.592 30.1033 15.2803 32 15.2803V13.4053C30.6965 13.4053 30.0974 12.9839 29.3391 12.4507C28.4753 11.8435 27.4963 11.1553 25.5999 11.1553Z" fill="#349486"/>
<path d="M25.5999 16.6855C23.7031 16.6855 22.7241 17.3738 21.8606 17.981C21.1021 18.5142 20.5029 18.9355 19.1995 18.9355C17.8962 18.9355 17.2971 18.5142 16.5388 17.981C15.6753 17.3738 14.6963 16.6855 12.7996 16.6855C10.9031 16.6855 9.92407 17.3738 9.06055 17.981C8.30225 18.5142 7.70312 18.9355 6.3999 18.9355C5.09668 18.9355 4.49756 18.5142 3.73926 17.981C2.87549 17.3738 1.89648 16.6855 0 16.6855V18.5605C1.30347 18.5605 1.90234 18.9817 2.66064 19.5149C3.52441 20.1221 4.50317 20.8105 6.3999 20.8105C8.29639 20.8105 9.27539 20.1221 10.1389 19.5149C10.8972 18.9817 11.4963 18.5605 12.7996 18.5605C14.103 18.5605 14.7019 18.9817 15.4604 19.5149C16.324 20.1221 17.303 20.8105 19.1995 20.8105C21.0962 20.8105 22.0752 20.1221 22.939 19.5149C23.6973 18.9817 24.2964 18.5605 25.5999 18.5605C26.9033 18.5605 27.5022 18.9817 28.2607 19.5149C29.1243 20.1221 30.1033 20.8105 32 20.8105V18.9355C30.6965 18.9355 30.0974 18.5142 29.3391 17.981C28.4753 17.3738 27.4963 16.6855 25.5999 16.6855Z" fill="#349486"/>
<path d="M29.3391 6.92065C28.4753 6.31323 27.4963 5.625 25.5999 5.625C23.7031 5.625 22.7241 6.31323 21.8606 6.92065C21.1021 7.45386 20.5029 7.875 19.1995 7.875C17.8962 7.875 17.2971 7.45386 16.5388 6.92065C15.6753 6.31323 14.6963 5.625 12.7996 5.625C10.9031 5.625 9.92407 6.31323 9.06055 6.92065C8.30225 7.45386 7.70312 7.875 6.3999 7.875C5.09668 7.875 4.49756 7.45386 3.73926 6.92065C2.87549 6.31323 1.89648 5.625 0 5.625V7.5C1.30347 7.5 1.90234 7.92114 2.66064 8.45435C3.52441 9.06177 4.50317 9.75 6.3999 9.75C8.29639 9.75 9.27539 9.06177 10.1389 8.45435C10.8972 7.92114 11.4963 7.5 12.7996 7.5C14.103 7.5 14.7019 7.92114 15.4604 8.45435C16.324 9.06177 17.303 9.75 19.1995 9.75C21.0962 9.75 22.0752 9.06177 22.939 8.45435C23.6973 7.92114 24.2964 7.5 25.5999 7.5C26.9033 7.5 27.5022 7.92114 28.2607 8.45435C29.1243 9.06177 30.1033 9.75 32 9.75V7.875C30.6965 7.875 30.0974 7.45386 29.3391 6.92065Z" fill="#349486"/>
</g>
<defs>
<clipPath id="clip0">
<rect width="32" height="32" fill="white"/>
</clipPath>
</defs>
</svg>
