<svg width="32" height="32" viewBox="0 0 32 32" fill="none" xmlns="http://www.w3.org/2000/svg">
<rect width="32" height="32" fill="white"/>
<g clip-path="url(#clip0)">
<path d="M32 19.6839C32 17.9968 30.6274 16.6242 28.9403 16.6242H3.76011V4.11904C3.76011 2.88234 4.76627 1.87624 6.00297 1.87624H8.05848C8.4057 1.87624 8.73692 2.02529 8.96727 2.28508L9.90738 3.34561C9.85113 3.6189 9.82151 3.90187 9.82151 4.19154V5.42124C9.45767 5.55004 9.19657 5.8962 9.19657 6.30416C9.19657 6.82187 9.61628 7.24158 10.134 7.24158H17.8893C18.407 7.24158 18.8267 6.82187 18.8267 6.30416C18.8267 5.8962 18.5656 5.55004 18.2018 5.42124V4.19154C18.2018 1.88105 16.3221 0.00140381 14.0116 0.00140381C12.7179 0.00140381 11.5595 0.590977 10.7903 1.51533L10.3702 1.0415C9.78427 0.380433 8.94171 0.00140381 8.05842 0.00140381H6.00297C3.73248 0.00140381 1.88527 1.84855 1.88527 4.11904V16.7492C1.88527 16.7855 1.88783 16.8211 1.89183 16.8564C0.782494 17.3162 0 18.4102 0 19.6839C0 20.9551 0.779431 22.0473 1.88527 22.5088V24.203C1.88527 27.5584 4.61509 30.2882 7.97049 30.2882H8.50625V31.0612C8.50625 31.5789 8.92597 31.9986 9.44367 31.9986C9.96138 31.9986 10.3811 31.5789 10.3811 31.0612V30.2882H21.6189V31.0612C21.6189 31.5789 22.0386 31.9986 22.5563 31.9986C23.074 31.9986 23.4937 31.5789 23.4937 31.0612V30.2882H24.0295C27.3848 30.2882 30.1147 27.5584 30.1147 24.203V22.5088C31.2206 22.0473 32 20.955 32 19.6839ZM14.0116 1.87618C15.2883 1.87618 16.3269 2.91484 16.3269 4.19147V5.36668H11.6963V4.19154C11.6963 2.91483 12.7349 1.87618 14.0116 1.87618ZM24.0295 28.4134H7.97049C5.64888 28.4134 3.76011 26.5246 3.76011 24.203V22.7435H28.2399V24.203C28.2399 26.5246 26.3511 28.4134 24.0295 28.4134ZM28.9403 20.8687H3.05967C2.40635 20.8687 1.87484 20.3372 1.87484 19.6839C1.87484 19.0305 2.40635 18.499 3.05967 18.499H28.9403C29.5937 18.499 30.1252 19.0305 30.1252 19.6839C30.1252 20.3372 29.5937 20.8687 28.9403 20.8687Z" fill="#349486"/>
<path d="M18.5523 13.6364C18.4725 13.2516 18.1607 12.9516 17.7711 12.8924C17.3844 12.8337 16.9906 13.033 16.8069 13.3777C16.623 13.7228 16.6754 14.1588 16.9388 14.4488C17.2017 14.7383 17.6305 14.8354 17.9918 14.6851C18.3973 14.5164 18.6421 14.0691 18.5523 13.6364Z" fill="#F15525"/>
<path d="M14.8026 13.6364C14.7227 13.2516 14.411 12.9516 14.0213 12.8924C13.6348 12.8337 13.2408 13.033 13.0571 13.3777C12.8732 13.7228 12.9256 14.1588 13.189 14.4488C13.452 14.7384 13.8806 14.8358 14.242 14.6851C14.6474 14.5161 14.8925 14.0695 14.8026 13.6364Z" fill="#F15525"/>
<path d="M11.0528 13.6364C10.9729 13.2517 10.661 12.9516 10.2716 12.8924C9.88497 12.8337 9.49106 13.033 9.30739 13.3777C9.12347 13.7228 9.17584 14.1588 9.43926 14.4488C9.70211 14.7382 10.1309 14.8354 10.4923 14.6851C10.8977 14.5164 11.1426 14.069 11.0528 13.6364Z" fill="#F15525"/>
<path d="M18.566 9.97732C18.5256 9.5873 18.2418 9.25658 17.861 9.16083C17.4822 9.06553 17.0702 9.22308 16.8538 9.54924C16.6378 9.87458 16.6462 10.3137 16.8803 10.6277C17.1145 10.9419 17.5301 11.0802 17.9055 10.9659C18.3272 10.8377 18.6108 10.4173 18.566 9.97732Z" fill="#F15525"/>
<path d="M14.8163 9.97738C14.7758 9.58735 14.4921 9.25669 14.1113 9.16089C13.7321 9.06552 13.321 9.22345 13.104 9.54929C12.8871 9.8752 12.8978 10.3129 13.1305 10.6277C13.3631 10.9422 13.7816 11.0805 14.1558 10.9667C14.5773 10.8384 14.861 10.4167 14.8163 9.97738Z" fill="#F15525"/>
<path d="M11.0666 9.97732C11.0262 9.58742 10.7423 9.25658 10.3616 9.16083C9.9828 9.06553 9.57077 9.22308 9.35435 9.54924C9.13781 9.87558 9.14781 10.3125 9.38085 10.6276C9.61339 10.9422 10.0319 11.0805 10.4061 10.9666C10.8276 10.8384 11.1113 10.4163 11.0666 9.97732Z" fill="#F15525"/>
</g>
<defs>
<clipPath id="clip0">
<rect width="32" height="32" fill="white"/>
</clipPath>
</defs>
</svg>
