<svg width="28" height="27" viewBox="0 0 28 27" fill="none" xmlns="http://www.w3.org/2000/svg">
<g clip-path="url(#clip0)">
<g clip-path="url(#clip1)">
<path d="M20.3818 12.1289C20.9643 12.1289 21.4365 11.6567 21.4365 11.0742C21.4365 10.4917 20.9643 10.0195 20.3818 10.0195C19.7993 10.0195 19.3271 10.4917 19.3271 11.0742C19.3271 11.6567 19.7993 12.1289 20.3818 12.1289Z" fill="white"/>
<path d="M22.8076 2.10938H21.4365V1.05469C21.4365 0.472184 20.9643 0 20.3818 0C19.7993 0 19.3271 0.472184 19.3271 1.05469V2.10938H14.5283V1.05469C14.5283 0.472184 14.0561 0 13.4736 0C12.8911 0 12.4189 0.472184 12.4189 1.05469V2.10938H7.67285V1.05469C7.67285 0.472184 7.20067 0 6.61816 0C6.03566 0 5.56348 0.472184 5.56348 1.05469V2.10938H4.24512C1.9189 2.10938 0.0263672 4.00191 0.0263672 6.32812V22.7812C0.0263672 25.1075 1.9189 27 4.24512 27H12.3135C12.896 27 13.3682 26.5278 13.3682 25.9453C13.3682 25.3628 12.896 24.8906 12.3135 24.8906H4.24512C3.08201 24.8906 2.13574 23.9444 2.13574 22.7812V6.32812C2.13574 5.16502 3.08201 4.21875 4.24512 4.21875H5.56348V5.27344C5.56348 5.85594 6.03566 6.32812 6.61816 6.32812C7.20067 6.32812 7.67285 5.85594 7.67285 5.27344V4.21875H12.4189V5.27344C12.4189 5.85594 12.8911 6.32812 13.4736 6.32812C14.0561 6.32812 14.5283 5.85594 14.5283 5.27344V4.21875H19.3271V5.27344C19.3271 5.85594 19.7993 6.32812 20.3818 6.32812C20.9643 6.32812 21.4365 5.85594 21.4365 5.27344V4.21875H22.8076C23.9707 4.21875 24.917 5.16502 24.917 6.32812V12.3398C24.917 12.9223 25.3892 13.3945 25.9717 13.3945C26.5542 13.3945 27.0264 12.9223 27.0264 12.3398V6.32812C27.0264 4.00191 25.1338 2.10938 22.8076 2.10938Z" fill="white"/>
<path d="M20.6455 14.2383C17.1271 14.2383 14.2646 17.1007 14.2646 20.6191C14.2646 24.1376 17.1271 27 20.6455 27C24.1639 27 27.0264 24.1376 27.0264 20.6191C27.0264 17.1007 24.1639 14.2383 20.6455 14.2383ZM20.6455 24.8906C18.2902 24.8906 16.374 22.9745 16.374 20.6191C16.374 18.2638 18.2902 16.3477 20.6455 16.3477C23.0008 16.3477 24.917 18.2638 24.917 20.6191C24.917 22.9745 23.0008 24.8906 20.6455 24.8906Z" fill="white"/>
<path d="M22.1748 19.5645H21.7002V18.457C21.7002 17.8745 21.228 17.4023 20.6455 17.4023C20.063 17.4023 19.5908 17.8745 19.5908 18.457V20.6191C19.5908 21.2016 20.063 21.6738 20.6455 21.6738H22.1748C22.7573 21.6738 23.2295 21.2016 23.2295 20.6191C23.2295 20.0366 22.7573 19.5645 22.1748 19.5645Z" fill="#F15525"/>
<path d="M15.7939 12.1289C16.3764 12.1289 16.8486 11.6567 16.8486 11.0742C16.8486 10.4917 16.3764 10.0195 15.7939 10.0195C15.2115 10.0195 14.7393 10.4917 14.7393 11.0742C14.7393 11.6567 15.2115 12.1289 15.7939 12.1289Z" fill="white"/>
<path d="M11.2061 16.7168C11.7885 16.7168 12.2607 16.2446 12.2607 15.6621C12.2607 15.0796 11.7885 14.6074 11.2061 14.6074C10.6236 14.6074 10.1514 15.0796 10.1514 15.6621C10.1514 16.2446 10.6236 16.7168 11.2061 16.7168Z" fill="white"/>
<path d="M6.61816 12.1289C7.20065 12.1289 7.67285 11.6567 7.67285 11.0742C7.67285 10.4917 7.20065 10.0195 6.61816 10.0195C6.03568 10.0195 5.56348 10.4917 5.56348 11.0742C5.56348 11.6567 6.03568 12.1289 6.61816 12.1289Z" fill="white"/>
<path d="M6.61816 16.7168C7.20065 16.7168 7.67285 16.2446 7.67285 15.6621C7.67285 15.0796 7.20065 14.6074 6.61816 14.6074C6.03568 14.6074 5.56348 15.0796 5.56348 15.6621C5.56348 16.2446 6.03568 16.7168 6.61816 16.7168Z" fill="white"/>
<path d="M6.61816 21.3047C7.20065 21.3047 7.67285 20.8325 7.67285 20.25C7.67285 19.6675 7.20065 19.1953 6.61816 19.1953C6.03568 19.1953 5.56348 19.6675 5.56348 20.25C5.56348 20.8325 6.03568 21.3047 6.61816 21.3047Z" fill="white"/>
<path d="M11.2061 21.3047C11.7885 21.3047 12.2607 20.8325 12.2607 20.25C12.2607 19.6675 11.7885 19.1953 11.2061 19.1953C10.6236 19.1953 10.1514 19.6675 10.1514 20.25C10.1514 20.8325 10.6236 21.3047 11.2061 21.3047Z" fill="white"/>
<path d="M11.2061 12.1289C11.7885 12.1289 12.2607 11.6567 12.2607 11.0742C12.2607 10.4917 11.7885 10.0195 11.2061 10.0195C10.6236 10.0195 10.1514 10.4917 10.1514 11.0742C10.1514 11.6567 10.6236 12.1289 11.2061 12.1289Z" fill="white"/>
</g>
</g>
<defs>
<clipPath id="clip0">
<rect width="27.0789" height="27" fill="white" transform="translate(0.0263672)"/>
</clipPath>
<clipPath id="clip1">
<rect width="27" height="27" fill="white" transform="translate(0.0263672)"/>
</clipPath>
</defs>
</svg>
