<svg width="32" height="32" viewBox="0 0 32 32" fill="none" xmlns="http://www.w3.org/2000/svg">
<rect width="32" height="32" fill="white"/>
<path d="M30.7761 12.8205L30.0786 12.082L27.6308 5.48373C27.2137 4.3692 26.147 3.63074 24.9573 3.6239H7.47351C6.28376 3.6239 5.21709 4.3692 4.8 5.48373L2.38633 12L1.3812 12.9299C0.505983 13.6752 0 14.7692 0 15.9179V25.5316C0.00683761 27.1042 1.28547 28.376 2.85812 28.376H4.66325C6.2359 28.376 7.51453 27.1042 7.52137 25.5316V24.1367H24.4786V25.5316C24.4855 27.1042 25.7641 28.376 27.3368 28.376H29.1419C30.7145 28.376 31.9932 27.1042 32 25.5316V15.6649C31.9932 14.5914 31.5556 13.5658 30.7761 12.8205ZM6.08547 5.94869C6.30427 5.36749 6.85812 4.99142 7.47351 4.99142H24.9641C25.5795 4.99142 26.1333 5.37433 26.3521 5.94869L28.4855 11.6923H26.8923C26.5162 9.12818 24.1299 7.35723 21.5658 7.74014C19.5214 8.041 17.9145 9.64783 17.6137 11.6923H3.95214L6.08547 5.94869ZM25.4974 11.6923H18.9949C19.3709 9.89399 21.135 8.74527 22.9333 9.12134C24.2188 9.39484 25.2239 10.4 25.4974 11.6923ZM6.15385 25.5316C6.14701 26.3521 5.48376 27.0085 4.66325 27.0085H2.85812C2.03761 27.0085 1.37436 26.3521 1.36752 25.5316V23.7401C1.77778 24.0068 2.31795 24.1367 2.85812 24.1367H6.15385V25.5316ZM30.6325 25.5316C30.6256 26.3521 29.9624 27.0085 29.1419 27.0085H27.3368C26.5162 27.0085 25.853 26.3453 25.8462 25.5316V24.1367H29.1419C29.6821 24.1367 30.2222 24.0068 30.6325 23.7401V25.5316ZM29.1419 22.7692H2.85812C2.04444 22.776 1.37436 22.1265 1.36752 21.306V15.9179C1.36752 15.1658 1.70256 14.4478 2.27692 13.9624C2.28376 13.9555 2.29744 13.9418 2.30427 13.935L3.23419 13.0598H29.1282L29.7846 13.7641C29.7915 13.7777 29.812 13.7846 29.8188 13.7983C30.3316 14.2837 30.6256 14.9607 30.6256 15.6649V21.306H30.6325C30.6256 22.1196 29.9556 22.776 29.1419 22.7692Z" fill="#349486"/>
<path d="M9.02565 15.7949H3.89744C3.52138 15.7949 3.21368 16.1026 3.21368 16.4787V20.0342C3.21368 20.4103 3.52138 20.718 3.89744 20.718H9.02565C9.40172 20.718 9.70941 20.4103 9.70941 20.0342V16.4787C9.70941 16.1026 9.40172 15.7949 9.02565 15.7949ZM8.34189 19.3505H4.58121V17.1624H8.34189V19.3505Z" fill="#F15525"/>
<path d="M28.1026 15.7949H22.9743C22.5983 15.7949 22.2906 16.1026 22.2906 16.4787V20.0342C22.2906 20.4103 22.5983 20.718 22.9743 20.718H28.1026C28.4786 20.718 28.7863 20.4103 28.7863 20.0342V16.4787C28.7863 16.1026 28.4786 15.7949 28.1026 15.7949ZM27.4188 19.3505H23.6581V17.1624H27.4188V19.3505Z" fill="#F15525"/>
<path d="M19.3026 18.6667H12.6974C12.3214 18.6667 12.0137 18.9744 12.0137 19.3504C12.0137 19.7265 12.3214 20.0342 12.6974 20.0342H19.3026C19.6786 20.0342 19.9863 19.7265 19.9863 19.3504C19.9863 18.9744 19.6786 18.6667 19.3026 18.6667Z" fill="#F15525"/>
<path d="M19.3026 16.547H12.6974C12.3214 16.547 12.0137 16.8547 12.0137 17.2308C12.0137 17.6068 12.3214 17.9145 12.6974 17.9145H19.3026C19.6786 17.9145 19.9863 17.6068 19.9863 17.2308C19.9863 16.8547 19.6786 16.547 19.3026 16.547Z" fill="#F15525"/>
</svg>
