<svg width="32" height="32" viewBox="0 0 32 32" fill="none" xmlns="http://www.w3.org/2000/svg">
<g clip-path="url(#clip0)">
<rect width="32" height="32" fill="white"/>
<path d="M26.5384 2.75471C26.3007 2.61459 26.0133 2.5864 25.7528 2.67753C23.0791 3.61328 20.4136 4.54146 18.2779 5.28428C17.6047 4.54509 16.6985 4.02253 15.677 3.83121C15.4115 2.28553 14.4345 0.950527 12.9957 0.231089L12.7317 0.0991519C12.2689 -0.132348 11.7056 0.0553394 11.474 0.518402C11.2424 0.981464 11.4301 1.54465 11.8933 1.77615L12.1572 1.90809C12.965 2.31203 13.5391 3.02721 13.7666 3.86909C11.786 4.3224 10.2804 6.03296 10.1375 8.11334C7.08306 9.17484 3.84081 10.303 0.627813 11.4276C0.25175 11.5592 6.25e-05 11.9141 6.25e-05 12.3124L0 22.3124C6.25e-05 22.7002 0.242313 23.063 0.629188 23.1977L25.7542 31.9477C25.8544 31.9827 25.9586 31.9999 26.0625 31.9999C26.1746 31.9999 26.2861 31.9798 26.3918 31.9402C26.4171 31.934 26.4489 31.9269 26.4864 31.9182C27.0046 31.7984 28.3812 31.4801 29.6271 30.456C31.2016 29.1617 32 27.2628 32 24.8124V12.3124C32 12.0535 31.9379 5.93653 26.5384 2.75471ZM14.8125 5.6249C16.3633 5.6249 17.625 6.88659 17.625 8.4374C17.625 9.98821 16.3633 11.2499 14.8125 11.2499C13.2617 11.2499 12 9.98821 12 8.4374C12 6.88659 13.2617 5.6249 14.8125 5.6249ZM10.3966 10.0082C11.0439 11.8225 12.7786 13.1249 14.8125 13.1249C17.3972 13.1249 19.5 11.0221 19.5 8.4374C19.5 7.91053 19.4113 7.40428 19.2503 6.93121C21.2074 6.2504 23.5637 5.42978 25.9489 4.59534C30.0763 7.30028 30.125 12.2612 30.125 12.3124C30.125 16.6608 26.9921 19.2665 25.9319 20.0234L20.7472 18.2088C20.4605 18.1085 20.1428 18.1532 19.895 18.3291C19.6472 18.5048 19.5 18.7898 19.5 19.0937V22.9374C19.5 23.4543 19.0794 23.8749 18.5625 23.8749C18.0456 23.8749 17.625 23.4543 17.625 22.9374V17.7812C17.625 17.3819 17.3722 17.0265 16.995 16.8955L3.78731 12.3095C6.0285 11.5272 8.256 10.7523 10.3966 10.0082ZM15.75 21.4633L1.875 16.6455V13.6303L15.75 18.448V21.4633ZM1.875 18.6303L15.8004 23.4656C16.0484 24.7647 17.1922 25.7499 18.5625 25.7499C19.2606 25.7499 19.8997 25.4937 20.3919 25.071L25.125 26.7276V29.7432L1.875 21.6462V18.6303ZM25.125 24.741L21.3337 23.4142C21.3604 23.2591 21.375 23.1 21.375 22.9375V20.4152L25.125 21.7277V24.741ZM30.125 24.8124C30.125 27.3769 29.1 29.0204 27 29.8108V21.5661C27.6885 21.0799 29.0121 20.017 30.125 18.3705V24.8124Z" fill="#349486"/>
<path d="M25.75 9.18768C26.2678 9.18768 26.6875 8.76795 26.6875 8.25018C26.6875 7.73242 26.2678 7.31268 25.75 7.31268C25.2322 7.31268 24.8125 7.73242 24.8125 8.25018C24.8125 8.76795 25.2322 9.18768 25.75 9.18768Z" fill="#F15525"/>
<path d="M27 13.5627C27.5178 13.5627 27.9375 13.143 27.9375 12.6252C27.9375 12.1074 27.5178 11.6877 27 11.6877C26.4822 11.6877 26.0625 12.1074 26.0625 12.6252C26.0625 13.143 26.4822 13.5627 27 13.5627Z" fill="#F15525"/>
<path d="M23.875 17.3127C24.3928 17.3127 24.8125 16.893 24.8125 16.3752C24.8125 15.8574 24.3928 15.4377 23.875 15.4377C23.3572 15.4377 22.9375 15.8574 22.9375 16.3752C22.9375 16.893 23.3572 17.3127 23.875 17.3127Z" fill="#F15525"/>
<path d="M22 12.9377C22.5178 12.9377 22.9375 12.518 22.9375 12.0002C22.9375 11.4824 22.5178 11.0627 22 11.0627C21.4822 11.0627 21.0625 11.4824 21.0625 12.0002C21.0625 12.518 21.4822 12.9377 22 12.9377Z" fill="#F15525"/>
</g>
<defs>
<clipPath id="clip0">
<rect width="32" height="32" fill="white"/>
</clipPath>
</defs>
</svg>
