<svg width="32" height="32" viewBox="0 0 32 32" fill="none" xmlns="http://www.w3.org/2000/svg">
<g clip-path="url(#clip0)">
<rect width="32" height="32" fill="white"/>
<path d="M19.125 0H4.875C3.32419 0 2.0625 1.26169 2.0625 2.8125V29.1875C2.0625 30.7383 3.32419 32 4.875 32H19.125C20.6758 32 21.9375 30.7383 21.9375 29.1875C21.9375 28.468 21.9375 6.441 21.9375 2.8125C21.9375 1.26169 20.6758 0 19.125 0ZM3.9375 2.8125C3.9375 2.29556 4.35806 1.875 4.875 1.875H19.125C19.6419 1.875 20.0625 2.29556 20.0625 2.8125V13.0625H3.9375V2.8125ZM19.125 30.125H4.875C4.35806 30.125 3.9375 29.7044 3.9375 29.1875V14.9375H20.0625V29.1875C20.0625 29.7044 19.6419 30.125 19.125 30.125Z" fill="#349486"/>
<path d="M7 6.0625C6.48225 6.0625 6.0625 6.48225 6.0625 7V9C6.0625 9.51775 6.48225 9.9375 7 9.9375C7.51775 9.9375 7.9375 9.51775 7.9375 9V7C7.9375 6.48225 7.51775 6.0625 7 6.0625Z" fill="#F15525"/>
<path d="M7 18.0625C6.48225 18.0625 6.0625 18.4822 6.0625 19V23C6.0625 23.5177 6.48225 23.9375 7 23.9375C7.51775 23.9375 7.9375 23.5177 7.9375 23V19C7.9375 18.4822 7.51775 18.0625 7 18.0625Z" fill="#F15525"/>
</g>
<defs>
<clipPath id="clip0">
<rect width="32" height="32" fill="white"/>
</clipPath>
</defs>
</svg>
