<svg width="46" height="45" viewBox="0 0 46 45" fill="none" xmlns="http://www.w3.org/2000/svg">
<rect width="45.1316" height="45" rx="4" fill="#349486"/>
<g clip-path="url(#clip0)">
<g clip-path="url(#clip1)">
<path d="M29.3818 21.1289C29.9643 21.1289 30.4365 20.6567 30.4365 20.0742C30.4365 19.4917 29.9643 19.0195 29.3818 19.0195C28.7993 19.0195 28.3271 19.4917 28.3271 20.0742C28.3271 20.6567 28.7993 21.1289 29.3818 21.1289Z" fill="white"/>
<path d="M31.8076 11.1094H30.4365V10.0547C30.4365 9.47218 29.9643 9 29.3818 9C28.7993 9 28.3271 9.47218 28.3271 10.0547V11.1094H23.5283V10.0547C23.5283 9.47218 23.0561 9 22.4736 9C21.8911 9 21.4189 9.47218 21.4189 10.0547V11.1094H16.6729V10.0547C16.6729 9.47218 16.2007 9 15.6182 9C15.0357 9 14.5635 9.47218 14.5635 10.0547V11.1094H13.2451C10.9189 11.1094 9.02637 13.0019 9.02637 15.3281V31.7812C9.02637 34.1075 10.9189 36 13.2451 36H21.3135C21.896 36 22.3682 35.5278 22.3682 34.9453C22.3682 34.3628 21.896 33.8906 21.3135 33.8906H13.2451C12.082 33.8906 11.1357 32.9444 11.1357 31.7812V15.3281C11.1357 14.165 12.082 13.2188 13.2451 13.2188H14.5635V14.2734C14.5635 14.8559 15.0357 15.3281 15.6182 15.3281C16.2007 15.3281 16.6729 14.8559 16.6729 14.2734V13.2188H21.4189V14.2734C21.4189 14.8559 21.8911 15.3281 22.4736 15.3281C23.0561 15.3281 23.5283 14.8559 23.5283 14.2734V13.2188H28.3271V14.2734C28.3271 14.8559 28.7993 15.3281 29.3818 15.3281C29.9643 15.3281 30.4365 14.8559 30.4365 14.2734V13.2188H31.8076C32.9707 13.2188 33.917 14.165 33.917 15.3281V21.3398C33.917 21.9223 34.3892 22.3945 34.9717 22.3945C35.5542 22.3945 36.0264 21.9223 36.0264 21.3398V15.3281C36.0264 13.0019 34.1338 11.1094 31.8076 11.1094Z" fill="white"/>
<path d="M29.6455 23.2383C26.1271 23.2383 23.2646 26.1007 23.2646 29.6191C23.2646 33.1376 26.1271 36 29.6455 36C33.1639 36 36.0264 33.1376 36.0264 29.6191C36.0264 26.1007 33.1639 23.2383 29.6455 23.2383ZM29.6455 33.8906C27.2902 33.8906 25.374 31.9745 25.374 29.6191C25.374 27.2638 27.2902 25.3477 29.6455 25.3477C32.0008 25.3477 33.917 27.2638 33.917 29.6191C33.917 31.9745 32.0008 33.8906 29.6455 33.8906Z" fill="white"/>
<path d="M31.1748 28.5645H30.7002V27.457C30.7002 26.8745 30.228 26.4023 29.6455 26.4023C29.063 26.4023 28.5908 26.8745 28.5908 27.457V29.6191C28.5908 30.2016 29.063 30.6738 29.6455 30.6738H31.1748C31.7573 30.6738 32.2295 30.2016 32.2295 29.6191C32.2295 29.0366 31.7573 28.5645 31.1748 28.5645Z" fill="#F15525"/>
<path d="M24.7939 21.1289C25.3764 21.1289 25.8486 20.6567 25.8486 20.0742C25.8486 19.4917 25.3764 19.0195 24.7939 19.0195C24.2115 19.0195 23.7393 19.4917 23.7393 20.0742C23.7393 20.6567 24.2115 21.1289 24.7939 21.1289Z" fill="white"/>
<path d="M20.2061 25.7168C20.7885 25.7168 21.2607 25.2446 21.2607 24.6621C21.2607 24.0796 20.7885 23.6074 20.2061 23.6074C19.6236 23.6074 19.1514 24.0796 19.1514 24.6621C19.1514 25.2446 19.6236 25.7168 20.2061 25.7168Z" fill="white"/>
<path d="M15.6182 21.1289C16.2007 21.1289 16.6729 20.6567 16.6729 20.0742C16.6729 19.4917 16.2007 19.0195 15.6182 19.0195C15.0357 19.0195 14.5635 19.4917 14.5635 20.0742C14.5635 20.6567 15.0357 21.1289 15.6182 21.1289Z" fill="white"/>
<path d="M15.6182 25.7168C16.2007 25.7168 16.6729 25.2446 16.6729 24.6621C16.6729 24.0796 16.2007 23.6074 15.6182 23.6074C15.0357 23.6074 14.5635 24.0796 14.5635 24.6621C14.5635 25.2446 15.0357 25.7168 15.6182 25.7168Z" fill="white"/>
<path d="M15.6182 30.3047C16.2007 30.3047 16.6729 29.8325 16.6729 29.25C16.6729 28.6675 16.2007 28.1953 15.6182 28.1953C15.0357 28.1953 14.5635 28.6675 14.5635 29.25C14.5635 29.8325 15.0357 30.3047 15.6182 30.3047Z" fill="white"/>
<path d="M20.2061 30.3047C20.7885 30.3047 21.2607 29.8325 21.2607 29.25C21.2607 28.6675 20.7885 28.1953 20.2061 28.1953C19.6236 28.1953 19.1514 28.6675 19.1514 29.25C19.1514 29.8325 19.6236 30.3047 20.2061 30.3047Z" fill="white"/>
<path d="M20.2061 21.1289C20.7885 21.1289 21.2607 20.6567 21.2607 20.0742C21.2607 19.4917 20.7885 19.0195 20.2061 19.0195C19.6236 19.0195 19.1514 19.4917 19.1514 20.0742C19.1514 20.6567 19.6236 21.1289 20.2061 21.1289Z" fill="white"/>
</g>
</g>
<defs>
<clipPath id="clip0">
<rect width="27.0789" height="27" fill="white" transform="translate(9.02637 9)"/>
</clipPath>
<clipPath id="clip1">
<rect width="27" height="27" fill="white" transform="translate(9.02637 9)"/>
</clipPath>
</defs>
</svg>
