<svg width="32" height="32" viewBox="0 0 32 32" fill="none" xmlns="http://www.w3.org/2000/svg">
<rect width="32" height="32" fill="white"/>
<g clip-path="url(#clip0)">
<path d="M19.8754 13.2401C18.8246 13.2401 17.8039 13.4439 16.8419 13.8457C16.5234 13.9788 16.3731 14.3448 16.5061 14.6633C16.6391 14.9819 17.0052 15.132 17.3237 14.9992C18.1323 14.6613 18.9908 14.4901 19.8754 14.4901C23.5285 14.4901 26.5004 17.4621 26.5004 21.1151C26.5004 24.7681 23.5285 27.7401 19.8754 27.7401C16.2224 27.7401 13.2504 24.7681 13.2504 21.1151C13.2504 20.2318 13.4212 19.3745 13.758 18.567C13.8909 18.2483 13.7403 17.8824 13.4217 17.7495C13.1034 17.6168 12.7372 17.7672 12.6043 18.0858C12.2036 19.0466 12.0004 20.0658 12.0004 21.1151C12.0004 25.4574 15.5331 28.9901 19.8754 28.9901C24.2177 28.9901 27.7504 25.4574 27.7504 21.1151C27.7504 16.7728 24.2177 13.2401 19.8754 13.2401Z" fill="#F15525"/>
<path d="M19.8754 26.2401C22.7014 26.2401 25.0004 23.941 25.0004 21.1151C25.0004 18.2892 22.7014 15.9901 19.8754 15.9901C17.0495 15.9901 14.7504 18.2892 14.7504 21.1151C14.7504 23.941 17.0496 26.2401 19.8754 26.2401ZM19.8754 17.2401C22.0121 17.2401 23.7504 18.9785 23.7504 21.1151C23.7504 23.2517 22.0121 24.9901 19.8754 24.9901C17.7387 24.9901 16.0004 23.2518 16.0004 21.1151C16.0004 18.9784 17.7387 17.2401 19.8754 17.2401Z" fill="#F15525"/>
<path d="M28.8303 10.2401H26.929L24.7468 6.54716C24.6344 6.35685 24.4298 6.2401 24.2088 6.2401H15.5421C15.321 6.2401 15.1164 6.35685 15.004 6.54716L12.8218 10.2401H9.25V9.4901C9.25 8.24941 8.24069 7.2401 7 7.2401C5.75931 7.2401 4.75 8.24941 4.75 9.4901V10.2401H3.16975C1.42194 10.2401 0 11.662 0 13.4099V28.8203C0 30.5682 1.42194 31.9901 3.16975 31.9901H28.8302C30.578 31.9901 31.9999 30.5682 31.9999 28.8203V13.4099C32 11.662 30.578 10.2401 28.8303 10.2401ZM15.8987 7.4901H23.8521L25.4771 10.2401H14.2737L15.8987 7.4901ZM6 9.4901C6 8.93873 6.44863 8.4901 7 8.4901C7.55138 8.4901 8 8.93873 8 9.4901V10.2401H6V9.4901ZM30.75 28.8203C30.75 29.8789 29.8888 30.7401 28.8303 30.7401H3.16975C2.11119 30.7401 1.25 29.8789 1.25 28.8203V13.4099C1.25 12.3513 2.11119 11.4901 3.16975 11.4901H28.8302C29.8888 11.4901 30.7499 12.3513 30.7499 13.4099L30.75 28.8203Z" fill="#349486"/>
<path d="M19.8754 19.8963C20.5475 19.8963 21.0941 20.4431 21.0941 21.1151C21.0941 21.4603 21.374 21.7401 21.7191 21.7401C22.0643 21.7401 22.3441 21.4603 22.3441 21.1151C22.3441 19.7538 21.2366 18.6463 19.8754 18.6463C19.5302 18.6463 19.2504 18.9262 19.2504 19.2713C19.2504 19.6165 19.5302 19.8963 19.8754 19.8963Z" fill="#F15525"/>
<path d="M19.8754 4.59578C20.2206 4.59578 20.5004 4.31591 20.5004 3.97078V0.634968C20.5004 0.289843 20.2206 0.0099678 19.8754 0.0099678C19.5302 0.0099678 19.2504 0.28978 19.2504 0.634968V3.97078C19.2504 4.31597 19.5302 4.59578 19.8754 4.59578Z" fill="#F15525"/>
<path d="M22.8495 4.59578C23.0094 4.59578 23.1694 4.53472 23.2914 4.41272L25.5846 2.11953C25.8287 1.87547 25.8287 1.47972 25.5845 1.23559C25.3405 0.991593 24.9447 0.991593 24.7007 1.23559L22.4075 3.52884C22.1635 3.77291 22.1635 4.16866 22.4075 4.41278C22.5296 4.53478 22.6895 4.59578 22.8495 4.59578Z" fill="#F15525"/>
<path d="M16.4594 4.41277C16.5814 4.53477 16.7414 4.59583 16.9013 4.59583C17.0612 4.59583 17.2212 4.53477 17.3432 4.41277C17.5873 4.16871 17.5874 3.77296 17.3433 3.52883L15.0501 1.23564C14.806 0.991705 14.4103 0.991642 14.1662 1.23564C13.9222 1.4797 13.9221 1.87545 14.1662 2.11958L16.4594 4.41277Z" fill="#F15525"/>
<path d="M8.625 15.3651H5.375C5.02981 15.3651 4.75 15.645 4.75 15.9901C4.75 16.3353 5.02981 16.6151 5.375 16.6151H8.625C8.97019 16.6151 9.25 16.3353 9.25 15.9901C9.25 15.6449 8.97019 15.3651 8.625 15.3651Z" fill="#F15525"/>
<path d="M14.7475 16.6151C14.9119 16.6151 15.0731 16.5482 15.1894 16.4319C15.3056 16.3157 15.3725 16.155 15.3725 15.9901C15.3725 15.8257 15.3056 15.6644 15.1894 15.5482C15.0731 15.432 14.9119 15.3651 14.7475 15.3651C14.5831 15.3651 14.4219 15.4319 14.3056 15.5482C14.1887 15.6644 14.1225 15.8258 14.1225 15.9901C14.1225 16.1544 14.1887 16.3157 14.3056 16.4319C14.4219 16.5482 14.5825 16.6151 14.7475 16.6151Z" fill="#F15525"/>
</g>
<defs>
<clipPath id="clip0">
<rect width="32" height="32" fill="white"/>
</clipPath>
</defs>
</svg>
