<svg width="32" height="32" viewBox="0 0 32 32" fill="none" xmlns="http://www.w3.org/2000/svg">
<rect width="32" height="32" fill="white"/>
<g clip-path="url(#clip0)">
<path d="M15 32H1C0.448 32 0 31.552 0 31V8.33333C0 7.04666 1.04667 5.99999 2.33333 5.99999H13.6667C14.9533 5.99999 16 7.04666 16 8.33333V31C16 31.552 15.552 32 15 32ZM2 30H14V8.33333C14 8.14933 13.8507 7.99999 13.6667 7.99999H2.33333C2.14933 7.99999 2 8.14933 2 8.33333V30Z" fill="#349486"/>
<path d="M12.3333 7.99996H3.66664C3.11464 7.99996 2.66664 7.55196 2.66664 6.99996V4.99996C2.66664 3.7133 3.71331 2.66663 4.99997 2.66663H11C12.2866 2.66663 13.3333 3.7133 13.3333 4.99996V6.99996C13.3333 7.55196 12.8853 7.99996 12.3333 7.99996ZM4.66664 5.99996H11.3333V4.99996C11.3333 4.81596 11.184 4.66663 11 4.66663H4.99997C4.81597 4.66663 4.66664 4.81596 4.66664 4.99996V5.99996Z" fill="#349486"/>
<path d="M8 4.66666C7.448 4.66666 7 4.21866 7 3.66666V0.999993C7 0.447992 7.448 -7.62939e-06 8 -7.62939e-06C8.552 -7.62939e-06 9 0.447992 9 0.999993V3.66666C9 4.21866 8.552 4.66666 8 4.66666Z" fill="#349486"/>
<path d="M20 32C19.448 32 19 31.552 19 31V26.0067C19 25.4547 19.448 25.0067 20 25.0067C20.552 25.0067 21 25.4547 21 26.0067V31C21 31.552 20.552 32 20 32Z" fill="#F15525"/>
<path d="M20 26.6667C18.5293 26.6667 17.3333 25.4707 17.3333 24C17.3333 22.5293 18.5293 21.3333 20 21.3333C21.4706 21.3333 22.6666 22.5293 22.6666 24C22.6666 25.4707 21.4706 26.6667 20 26.6667ZM20 23.3333C19.632 23.3333 19.3333 23.632 19.3333 24C19.3333 24.368 19.632 24.6667 20 24.6667C20.368 24.6667 20.6666 24.368 20.6666 24C20.6666 23.632 20.368 23.3333 20 23.3333Z" fill="#F15525"/>
<path d="M10.3333 32H5.66664C5.11464 32 4.66664 31.552 4.66664 31V25C4.66664 24.448 5.11464 24 5.66664 24H10.3333C10.8853 24 11.3333 24.448 11.3333 25V31C11.3333 31.552 10.8853 32 10.3333 32ZM6.66664 30H9.33331V26H6.66664V30Z" fill="#349486"/>
<path d="M9.66667 20H6.33334C5.78134 20 5.33334 19.552 5.33334 19C5.33334 18.448 5.78134 18 6.33334 18H9.66667C10.2187 18 10.6667 18.448 10.6667 19C10.6667 19.552 10.2187 20 9.66667 20Z" fill="#F15525"/>
<path d="M9.66667 12H6.33334C5.78134 12 5.33334 11.552 5.33334 11C5.33334 10.448 5.78134 10 6.33334 10H9.66667C10.2187 10 10.6667 10.448 10.6667 11C10.6667 11.552 10.2187 12 9.66667 12Z" fill="#F15525"/>
<path d="M9.66667 16H6.33334C5.78134 16 5.33334 15.552 5.33334 15C5.33334 14.448 5.78134 14 6.33334 14H9.66667C10.2187 14 10.6667 14.448 10.6667 15C10.6667 15.552 10.2187 16 9.66667 16Z" fill="#F15525"/>
<path d="M24.3333 32H13C12.448 32 12 31.552 12 31C12 30.448 12.448 30 13 30H24.3333C24.8853 30 25.3333 30.448 25.3333 31C25.3333 31.552 24.8853 32 24.3333 32Z" fill="#349486"/>
<path d="M25.3334 18.6667C25.1014 18.6667 24.8707 18.5867 24.6827 18.4267C24.4374 18.216 18.6667 13.22 18.6667 8.08268C18.6667 4.36135 21.6574 1.33335 25.3334 1.33335C29.0094 1.33335 32 4.36135 32 8.08268C32 13.22 26.2294 18.216 25.984 18.4254C25.796 18.5867 25.5654 18.6667 25.3334 18.6667ZM25.3334 3.33335C22.76 3.33335 20.6667 5.46402 20.6667 8.08268C20.6667 11.392 23.9147 14.9173 25.3334 16.3013C26.752 14.9187 30 11.392 30 8.08268C30 5.46402 27.9067 3.33335 25.3334 3.33335Z" fill="#349486"/>
<path d="M25.3333 10.6667C23.8627 10.6667 22.6667 9.47068 22.6667 8.00002C22.6667 6.52935 23.8627 5.33335 25.3333 5.33335C26.804 5.33335 28 6.52935 28 8.00002C28 9.47068 26.804 10.6667 25.3333 10.6667ZM25.3333 7.33335C24.9653 7.33335 24.6667 7.63202 24.6667 8.00002C24.6667 8.36802 24.9653 8.66668 25.3333 8.66668C25.7013 8.66668 26 8.36802 26 8.00002C26 7.63202 25.7013 7.33335 25.3333 7.33335Z" fill="#F15525"/>
</g>
<defs>
<clipPath id="clip0">
<rect width="32" height="32" fill="white"/>
</clipPath>
</defs>
</svg>
