<svg width="32" height="32" viewBox="0 0 32 32" fill="none" xmlns="http://www.w3.org/2000/svg">
<rect width="32" height="32" fill="white"/>
<rect width="32" height="32" fill="white"/>
<path d="M21.125 8.32883C22.2278 8.32883 23.125 7.43164 23.125 6.32883C23.125 5.22602 22.2278 4.32883 21.125 4.32883C20.0222 4.32883 19.125 5.22602 19.125 6.32883C19.125 7.43164 20.0222 8.32883 21.125 8.32883ZM21.125 5.57883C21.5386 5.57883 21.875 5.91527 21.875 6.32883C21.875 6.74239 21.5386 7.07883 21.125 7.07883C20.7114 7.07883 20.375 6.74239 20.375 6.32883C20.375 5.91527 20.7114 5.57883 21.125 5.57883Z" fill="#F15525"/>
<path d="M31.7147 1.43372C31.5367 1.31847 31.3125 1.30134 31.1192 1.38809L25.4826 3.91622C25.2614 3.51784 24.9829 3.14384 24.6464 2.80741C22.7047 0.865719 19.5453 0.865719 17.6035 2.80741C17.2671 3.14384 16.9886 3.51784 16.7674 3.91622L11.1308 1.38809C10.9681 1.31516 10.782 1.31516 10.6193 1.38809L0.36925 5.98547C0.144563 6.08616 0 6.30941 0 6.55566V29.3327C0 29.5446 0.107438 29.7421 0.285313 29.8573C0.388125 29.9238 0.50625 29.9577 0.625063 29.9577C0.711938 29.9577 0.799125 29.9395 0.880813 29.903L9.45906 26.0555C9.70569 26.1822 9.97088 26.2777 10.2501 26.3349V30.2077C10.2501 30.5528 10.5299 30.8327 10.8751 30.8327C11.2203 30.8327 11.5001 30.5528 11.5001 30.2077V26.3349C11.7793 26.2777 12.0444 26.1822 12.2911 26.0555L20.8692 29.903C20.9506 29.9394 21.0378 29.9577 21.125 29.9577C21.2122 29.9577 21.2994 29.9394 21.3808 29.903L31.6308 25.3056C31.8554 25.2048 32 24.9815 32 24.7353V1.95834C32 1.74634 31.8926 1.54884 31.7147 1.43372ZM18.4874 3.69128C19.2146 2.96403 20.1698 2.60053 21.125 2.60053C22.0802 2.60053 23.0354 2.96409 23.7626 3.69134C25.0482 4.97691 25.2217 6.98916 24.1752 8.47591L21.125 12.8093L18.0748 8.47585C17.0283 6.98909 17.2018 4.97685 18.4874 3.69128ZM1.25 6.96028L10.875 2.64328L16.3022 5.07747C16.1685 5.59203 16.1191 6.12478 16.1539 6.65497L11.1308 4.40197C10.968 4.32897 10.7819 4.32897 10.6192 4.40197L3.11919 7.76591C2.8945 7.86666 2.74994 8.08997 2.74994 8.33616V25.0853C2.74994 25.2972 2.85737 25.4947 3.03525 25.6099C3.13806 25.6765 3.25619 25.7103 3.375 25.7103C3.46188 25.7103 3.54906 25.6922 3.63075 25.6555L7.80556 23.783C7.88769 24.2951 8.09519 24.7657 8.39569 25.1623L1.25 28.3673V6.96028ZM12.7342 23.2888C12.7342 24.314 11.9002 25.148 10.875 25.148C9.84981 25.148 9.01581 24.314 9.01581 23.2888C9.01581 22.2637 9.84981 21.4297 10.875 21.4297C11.9002 21.4297 12.7342 22.2637 12.7342 23.2888ZM30.75 24.3307L21.125 28.6477L13.3543 25.1623C13.6548 24.7657 13.8623 24.2951 13.9444 23.783L20.8692 26.889C20.9506 26.9254 21.0378 26.9437 21.125 26.9437C21.2122 26.9437 21.2994 26.9254 21.3808 26.889L28.8808 23.525C29.1054 23.4243 29.25 23.201 29.25 22.9547V18.458C29.25 18.1128 28.9702 17.833 28.625 17.833C28.2798 17.833 28 18.1128 28 18.458V22.5501L21.125 25.6337L13.8451 22.3685C13.4518 21.102 12.2691 20.1797 10.875 20.1797C9.48088 20.1797 8.29819 21.102 7.90494 22.3685L4 24.12V8.74085L10.875 5.65728L16.5012 8.18078C16.6428 8.5326 16.8259 8.87335 17.0526 9.19541L20.6139 14.255C20.7309 14.4213 20.9216 14.5202 21.1249 14.5202C21.3283 14.5202 21.519 14.4213 21.636 14.255L25.1973 9.19541C25.424 8.87335 25.6071 8.53266 25.7486 8.18078L28 7.17097V12.833C28 13.1782 28.2798 13.458 28.625 13.458C28.9702 13.458 29.25 13.1782 29.25 12.833V6.20566C29.25 5.99372 29.1426 5.79622 28.9647 5.68103C28.7868 5.56578 28.5625 5.54872 28.3692 5.63541L26.0961 6.65497C26.1309 6.12478 26.0815 5.59203 25.9478 5.07747L30.75 2.92359V24.3307Z" fill="#0A8573"/>
<path d="M28.625 15.0204C28.4606 15.0204 28.2994 15.0873 28.1831 15.2036C28.0669 15.3198 28 15.4811 28 15.6454C28 15.8098 28.0669 15.9711 28.1831 16.0873C28.2994 16.2036 28.4606 16.2704 28.625 16.2704C28.7894 16.2704 28.9506 16.2036 29.0669 16.0873C29.1831 15.9711 29.25 15.8098 29.25 15.6454C29.25 15.4811 29.1831 15.3198 29.0669 15.2036C28.9506 15.0873 28.7894 15.0204 28.625 15.0204Z" fill="#F15525"/>
<path d="M10.7592 16.9661C10.4182 17.0193 10.1849 17.339 10.2382 17.68C10.246 17.7303 10.25 17.7816 10.25 17.8326C10.25 18.1778 10.5298 18.4576 10.875 18.4576C11.2202 18.4576 11.5 18.1778 11.5 17.8326C11.5 17.7173 11.491 17.601 11.4732 17.4871C11.4199 17.1461 11.1004 16.9126 10.7592 16.9661Z" fill="#F15525"/>
<path d="M17.3224 16.857L16.9508 16.5504C16.6846 16.3308 16.2906 16.3686 16.0709 16.6348C15.8512 16.901 15.889 17.295 16.1553 17.5147L16.5269 17.8212C16.6433 17.9173 16.7842 17.9642 16.9243 17.9642C17.1044 17.9642 17.2831 17.8867 17.4067 17.7368C17.6265 17.4705 17.5886 17.0766 17.3224 16.857Z" fill="#F15525"/>
<path d="M13.3858 11.6448C13.1908 11.3599 12.8019 11.2871 12.517 11.482C12.2321 11.677 12.1593 12.0659 12.3543 12.3508L12.6264 12.7483C12.7475 12.9253 12.9434 13.0204 13.1427 13.0204C13.2643 13.0204 13.3872 12.985 13.4951 12.9111C13.78 12.7161 13.8529 12.3271 13.6579 12.0423L13.3858 11.6448Z" fill="#F15525"/>
<path d="M15.1544 14.2288C14.9594 13.944 14.5704 13.8712 14.2856 14.0661C14.0007 14.2611 13.9279 14.65 14.1229 14.9348L14.395 15.3324C14.5161 15.5093 14.712 15.6045 14.9113 15.6045C15.0329 15.6045 15.1559 15.569 15.2637 15.4952C15.5486 15.3002 15.6215 14.9112 15.4265 14.6264L15.1544 14.2288Z" fill="#F15525"/>
<path d="M19.4903 18.087C19.3856 18.1066 19.2787 18.1125 19.1737 18.1045C18.829 18.0778 18.5292 18.3356 18.5027 18.6798C18.4763 19.024 18.7339 19.3244 19.078 19.3508C19.14 19.3556 19.203 19.358 19.2652 19.358C19.4172 19.358 19.5704 19.3437 19.7207 19.3156C20.0599 19.252 20.2834 18.9254 20.2199 18.5861C20.1562 18.2468 19.8296 18.0234 19.4903 18.087Z" fill="#F15525"/>
<path d="M11.5188 9.44022C11.3498 9.33803 11.1705 9.2504 10.986 9.17997C10.6634 9.05684 10.3022 9.21847 10.1792 9.5409C10.056 9.86341 10.2177 10.2246 10.5401 10.3477C10.655 10.3916 10.7667 10.4461 10.8718 10.5097C10.973 10.5709 11.0845 10.6 11.1947 10.6C11.4062 10.6 11.6126 10.4927 11.73 10.2985C11.9087 10.0032 11.8141 9.61891 11.5188 9.44022Z" fill="#F15525"/>
<path d="M9.3729 15.2632L9.33121 15.2372C9.22834 15.1729 9.12796 15.1023 9.03278 15.0274C8.76153 14.8138 8.36859 14.8607 8.15509 15.1318C7.94153 15.403 7.98834 15.796 8.25953 16.0095C8.39009 16.1123 8.52778 16.2092 8.66878 16.2973L8.71046 16.3233C8.81346 16.3877 8.9279 16.4184 9.04109 16.4184C9.2494 16.4184 9.45315 16.3142 9.57171 16.1245C9.75465 15.8317 9.66559 15.4461 9.3729 15.2632Z" fill="#F15525"/>
<path d="M7.77367 12.7834C7.73274 12.4407 7.42149 12.196 7.07899 12.2369C6.73624 12.2778 6.49155 12.5888 6.53249 12.9316C6.55449 13.1153 6.58786 13.2997 6.63174 13.4795C6.70149 13.765 6.95705 13.9563 7.23842 13.9563C7.28755 13.9563 7.33742 13.9505 7.38724 13.9383C7.72255 13.8563 7.92799 13.5181 7.84605 13.1828C7.81399 13.0518 7.78967 12.9174 7.77367 12.7834Z" fill="#F15525"/>
<path d="M8.60614 10.5988C8.88639 10.3973 8.95027 10.0068 8.74877 9.72652C8.54721 9.44621 8.15671 9.3824 7.87646 9.5839C7.71608 9.69921 7.56521 9.82977 7.42796 9.97196C7.18821 10.2203 7.19521 10.616 7.44358 10.8557C7.56489 10.9728 7.72127 11.031 7.87758 11.031C8.04121 11.031 8.20471 10.9672 8.32733 10.8401C8.41264 10.7517 8.50646 10.6705 8.60614 10.5988Z" fill="#F15525"/>
<path d="M21.125 15.9264C20.7798 15.9264 20.5 16.2062 20.5 16.5514V16.8014C20.5 17.1466 20.7798 17.4264 21.125 17.4264C21.4702 17.4264 21.75 17.1466 21.75 16.8014V16.5514C21.75 16.2062 21.4702 15.9264 21.125 15.9264Z" fill="#F15525"/>
</svg>
