<svg width="32" height="32" viewBox="0 0 32 32" fill="none" xmlns="http://www.w3.org/2000/svg">
<rect width="32" height="32" fill="white"/>
<path d="M14.2085 7.09808H18.5433C19.061 7.09808 19.4808 6.67833 19.4808 6.16058V0.949646C19.4808 0.431896 19.061 0.012146 18.5433 0.012146H14.2085C13.6907 0.012146 13.271 0.431896 13.271 0.949646V6.16052C13.271 6.67833 13.6907 7.09808 14.2085 7.09808ZM15.146 1.88715H17.6058V5.22302H15.146V1.88715Z" fill="#F15525"/>
<path d="M22.3037 7.14775H29.1875C29.7053 7.14775 30.125 6.728 30.125 6.21025V0.9375C30.125 0.41975 29.7053 0 29.1875 0H22.3037C21.786 0 21.3662 0.41975 21.3662 0.9375V6.21025C21.3662 6.728 21.786 7.14775 22.3037 7.14775ZM23.2412 1.875H28.25V5.27275H23.2412V1.875Z" fill="#F15525"/>
<path d="M31.0625 14.4514H31.0012V14.2733C31.0012 11.6886 28.8984 9.58582 26.3137 9.58582H19.7499C18.3779 9.58582 17.3939 9.77194 16.6531 10.1716C16.4389 10.2872 16.2126 10.4399 15.9999 10.6395C15.7872 10.4399 15.561 10.2872 15.3468 10.1716C14.606 9.77194 13.6219 9.58582 12.2499 9.58582H5.68625C3.10156 9.58582 0.99875 11.6886 0.99875 14.2733V14.4514H0.9375C0.41975 14.4514 0 14.8712 0 15.3889V27.9078C0 28.4256 0.41975 28.8453 0.9375 28.8453H2.245V31.0625C2.245 31.5802 2.66475 32 3.1825 32H6.94244C7.46019 32 7.87994 31.5802 7.87994 31.0625V28.8453H24.12V31.0625C24.12 31.5802 24.5398 32 25.0575 32H28.8174C29.3352 32 29.7549 31.5802 29.7549 31.0625V28.8453H31.0625C31.5802 28.8453 32 28.4256 32 27.9078V15.3889C32 14.8712 31.5802 14.4514 31.0625 14.4514ZM19.7499 11.4608H26.3137C27.8645 11.4608 29.1262 12.7225 29.1262 14.2733V14.4531C27.3997 14.4883 26.0058 15.9028 26.0058 17.6375V19.4505H19.7501C18.6956 19.4505 17.7215 19.8006 16.9375 20.3906V13.0233C16.9375 13.0225 16.9374 13.0218 16.9374 13.0209C16.9379 12.1985 17.1551 11.4608 19.7499 11.4608ZM5.99412 21.3255H12.25C13.4802 21.3255 14.5278 22.1197 14.9086 23.2221H5.99412V21.3255ZM26.0059 21.3255V23.2221H17.0915C17.4724 22.1198 18.5199 21.3255 19.7501 21.3255H26.0059ZM5.68625 11.4608H12.25C14.8449 11.4608 15.0621 12.1985 15.0625 13.0209C15.0625 13.0218 15.0624 13.0225 15.0624 13.0233C15.0624 13.0238 15.0625 13.0241 15.0625 13.0245V20.3906C14.2785 19.8007 13.3044 19.4505 12.25 19.4505H5.99412V17.6375C5.99412 15.9027 4.60025 14.4883 2.87375 14.4531V14.2733C2.87375 12.7225 4.13544 11.4608 5.68625 11.4608ZM6.005 30.125H4.12V28.8453H6.005V30.125ZM27.88 30.125H25.995V28.8453H27.8799V30.125H27.88ZM30.125 26.9703H1.875V16.3264H2.808C3.53094 16.3264 4.11912 16.9146 4.11912 17.6376V24.1597C4.11912 24.6775 4.53887 25.0972 5.05662 25.0972H26.9434C27.4611 25.0972 27.8809 24.6775 27.8809 24.1597V20.3891C27.8809 20.3887 27.8809 20.3884 27.8809 20.388C27.8809 20.3876 27.8809 20.3873 27.8809 20.387V17.6376C27.8809 16.9146 28.4691 16.3264 29.192 16.3264H30.125V26.9703Z" fill="#349486"/>
</svg>
