<svg width="32" height="32" viewBox="0 0 32 32" fill="none" xmlns="http://www.w3.org/2000/svg">
<g clip-path="url(#clip0)">
<path d="M31.9163 12.2739C31.7056 11.6259 31.1309 11.1672 30.4536 11.1059L21.2162 10.2672L17.5655 1.72023C17.2959 1.09229 16.6827 0.687012 16 0.687012C15.3174 0.687012 14.7039 1.09229 14.436 1.72023L10.7853 10.2672L1.54642 11.1059C0.869159 11.1684 0.295663 11.6271 0.0837457 12.2739C-0.126951 12.9218 0.0676321 13.6325 0.579848 14.0818L7.56263 20.2047L5.50376 29.2727C5.35312 29.9394 5.61191 30.6289 6.16515 31.0288C6.46251 31.2449 6.81188 31.3528 7.16248 31.3528C7.46375 31.3528 7.76527 31.2727 8.03456 31.1116L16 26.3488L23.964 31.1116C24.5483 31.4607 25.2829 31.4287 25.8349 31.0288C26.3881 30.6289 26.6469 29.9394 26.4963 29.2727L24.4374 20.2047L31.4202 14.0818C31.9322 13.6325 32.127 12.9233 31.9163 12.2739Z" fill="#F15525"/>
</g>
<defs>
<clipPath id="clip0">
<rect width="32" height="32" fill="white"/>
</clipPath>
</defs>
</svg>
