<svg width="32" height="32" viewBox="0 0 32 32" fill="none" xmlns="http://www.w3.org/2000/svg">
<rect width="32" height="32" fill="white"/>
<g clip-path="url(#clip0)">
<path d="M29.1875 5.62454H18.2633L22.2879 1.59998C22.654 1.23386 22.654 0.640293 22.2879 0.274168C21.9218 -0.091957 21.3282 -0.091957 20.9621 0.274168L16 5.23623L11.0379 0.274105C10.6719 -0.0920195 10.0782 -0.0920195 9.71212 0.274105C9.346 0.64023 9.346 1.23379 9.71212 1.59992L13.7367 5.62454H2.8125C1.26169 5.62454 0 6.88623 0 8.43704V27.312C0 28.8629 1.26169 30.1245 2.8125 30.1245H5.625V31.062C5.625 31.5798 6.04475 31.9995 6.5625 31.9995C7.08025 31.9995 7.5 31.5798 7.5 31.062V30.1245H24.5V31.062C24.5 31.5798 24.9198 31.9995 25.4375 31.9995C25.9552 31.9995 26.375 31.5798 26.375 31.062V30.1245H29.1875C30.7383 30.1245 32 28.8629 32 27.312V8.43704C32 6.88623 30.7384 5.62454 29.1875 5.62454ZM30.125 27.312C30.125 27.829 29.7044 28.2495 29.1875 28.2495H2.8125C2.29556 28.2495 1.875 27.829 1.875 27.312V8.43704C1.875 7.92011 2.29556 7.49954 2.8125 7.49954H29.1875C29.7044 7.49954 30.125 7.92011 30.125 8.43704V27.312Z" fill="#349486"/>
<path d="M23.5625 9.375H4.6875C4.16975 9.375 3.75 9.79475 3.75 10.3125V25.4375C3.75 25.9552 4.16975 26.375 4.6875 26.375H23.5625C24.0802 26.375 24.5 25.9552 24.5 25.4375V10.3125C24.5 9.79475 24.0802 9.375 23.5625 9.375ZM22.625 24.5H5.625V11.25H22.625V24.5Z" fill="#349486"/>
<path d="M27.3125 13.125C27.8303 13.125 28.25 12.7053 28.25 12.1875C28.25 11.6697 27.8303 11.25 27.3125 11.25C26.7947 11.25 26.375 11.6697 26.375 12.1875C26.375 12.7053 26.7947 13.125 27.3125 13.125Z" fill="#F15525"/>
<path d="M27.3125 16.875C27.8303 16.875 28.25 16.4553 28.25 15.9375C28.25 15.4197 27.8303 15 27.3125 15C26.7947 15 26.375 15.4197 26.375 15.9375C26.375 16.4553 26.7947 16.875 27.3125 16.875Z" fill="#F15525"/>
<path d="M27.3125 18.75C26.7947 18.75 26.375 19.1697 26.375 19.6875V23.5625C26.375 24.0802 26.7947 24.5 27.3125 24.5C27.8303 24.5 28.25 24.0802 28.25 23.5625V19.6875C28.25 19.1697 27.8303 18.75 27.3125 18.75Z" fill="#F15525"/>
</g>
<defs>
<clipPath id="clip0">
<rect width="32" height="32" fill="white"/>
</clipPath>
</defs>
</svg>
