<svg width="32" height="32" viewBox="0 0 32 32" fill="none" xmlns="http://www.w3.org/2000/svg">
<rect width="32" height="32" fill="white"/>
<path d="M15.9375 29.1562C17.0766 29.1562 18 28.2328 18 27.0938C18 25.9547 17.0766 25.0312 15.9375 25.0312C14.7984 25.0312 13.875 25.9547 13.875 27.0938C13.875 28.2328 14.7984 29.1562 15.9375 29.1562Z" fill="#F15525"/>
<path d="M31.6644 9.67899C27.5563 5.27131 21.9934 2.84381 15.9998 2.84375C10.0066 2.84381 4.44372 5.27131 0.335543 9.67899C-0.135081 10.184 -0.107269 10.975 0.39773 11.4457C0.902792 11.9163 1.69373 11.8885 2.16441 11.3835C5.79441 7.48874 10.7079 5.34381 16.0002 5.34374C21.2921 5.34381 26.2056 7.48874 29.8355 11.3835C30.0817 11.6476 30.4155 11.7812 30.7502 11.7812C31.0554 11.7812 31.3614 11.6701 31.6022 11.4457C32.1072 10.9749 32.1351 10.184 31.6644 9.67899Z" fill="#349486"/>
<path d="M27.0745 14.8411C24.0378 11.7815 20.1047 10.0966 15.9997 10.0967C11.8938 10.0967 7.96069 11.7817 4.92494 14.8412C4.4387 15.3313 4.44176 16.1227 4.93182 16.609C5.42188 17.0952 6.21332 17.0922 6.69957 16.6021C9.26238 14.0192 12.5652 12.5967 15.9997 12.5967C19.4334 12.5966 22.7362 14.0191 25.3 16.6022C25.5443 16.8484 25.8657 16.9717 26.1872 16.9717C26.5055 16.9717 26.824 16.8508 27.0678 16.6089C27.5578 16.1225 27.5608 15.3311 27.0745 14.8411Z" fill="#349486"/>
<path d="M22.0718 20.0181C20.4456 18.4069 18.1145 17.4061 15.9881 17.4061C15.9879 17.4061 15.9875 17.4061 15.9872 17.4061H15.8971C15.8968 17.4061 15.8966 17.4061 15.8962 17.4061C13.7698 17.4061 11.4385 18.407 9.81234 20.0181C9.32196 20.504 9.31828 21.2954 9.80415 21.7859C10.0486 22.0326 10.3703 22.1561 10.6922 22.1561C11.0101 22.1561 11.3281 22.0356 11.5718 21.7941C12.7295 20.6471 14.4268 19.9061 15.8963 19.9061C15.8965 19.9061 15.8968 19.9061 15.897 19.9061H15.9874C15.9876 19.9061 15.9877 19.9061 15.988 19.9061C17.4573 19.9061 19.1547 20.6472 20.3123 21.7941C20.8026 22.2799 21.5942 22.2764 22.08 21.7859C22.5659 21.2955 22.5622 20.504 22.0718 20.0181Z" fill="#349486"/>
</svg>
